ffmpeg version 6.1.1-3ubuntu5 Copyright (c) 2000-2023 the FFmpeg developers
  built with gcc 13 (Ubuntu 13.2.0-23ubuntu3)
  configuration: --prefix=/usr --extra-version=3ubuntu5 --toolchain=hardened --libdir=/usr/lib/x86_64-linux-gnu --incdir=/usr/include/x86_64-linux-gnu --arch=amd64 --enable-gpl --disable-stripping --disable-omx --enable-gnutls --enable-libaom --enable-libass --enable-libbs2b --enable-libcaca --enable-libcdio --enable-libcodec2 --enable-libdav1d --enable-libflite --enable-libfontconfig --enable-libfreetype --enable-libfribidi --enable-libglslang --enable-libgme --enable-libgsm --enable-libharfbuzz --enable-libmp3lame --enable-libmysofa --enable-libopenjpeg --enable-libopenmpt --enable-libopus --enable-librubberband --enable-libshine --enable-libsnappy --enable-libsoxr --enable-libspeex --enable-libtheora --enable-libtwolame --enable-libvidstab --enable-libvorbis --enable-libvpx --enable-libwebp --enable-libx265 --enable-libxml2 --enable-libxvid --enable-libzimg --enable-openal --enable-opencl --enable-opengl --disable-sndio --enable-libvpl --disable-libmfx --enable-libdc1394 --enable-libdrm --enable-libiec61883 --enable-chromaprint --enable-frei0r --enable-ladspa --enable-libbluray --enable-libjack --enable-libpulse --enable-librabbitmq --enable-librist --enable-libsrt --enable-libssh --enable-libsvtav1 --enable-libx264 --enable-libzmq --enable-libzvbi --enable-lv2 --enable-sdl2 --enable-libplacebo --enable-librav1e --enable-pocketsphinx --enable-librsvg --enable-libjxl --enable-shared
  libavutil      58. 29.100 / 58. 29.100
  libavcodec     60. 31.102 / 60. 31.102
  libavformat    60. 16.100 / 60. 16.100
  libavdevice    60.  3.100 / 60.  3.100
  libavfilter     9. 12.100 /  9. 12.100
  libswscale      7.  5.100 /  7.  5.100
  libswresample   4. 12.100 /  4. 12.100
  libpostproc    57.  3.100 / 57.  3.100
Input #0, mp3, from 'neon.skylines.mp3':
  Metadata:
    major_brand     : isom
    minor_version   : 512
    compatible_brands: isomiso2mp41
    encoder         : Lavf60.16.100
  Duration: 01:53:20.25, start: 0.025056, bitrate: 124 kb/s
  Stream #0:0: Audio: mp3, 44100 Hz, stereo, fltp, 122 kb/s
    Metadata:
      encoder         : Lavc60.31
  Stream #0:1: Video: png, rgb24(pc, gbr/unknown/unknown), 1280x720, 90k tbr, 90k tbn (attached pic)
    Metadata:
      title           : "Album cover"
      comment         : Cover (front)
Stream mapping:
  Stream #0:1 -> #0:0 (png (native) -> wrapped_avframe (native))
  Stream #0:0 -> #0:1 (mp3 (mp3float) -> pcm_s16le (native))
Press [q] to stop, [?] for help
Output #0, null, to 'pipe:':
  Metadata:
    major_brand     : isom
    minor_version   : 512
    compatible_brands: isomiso2mp41
    encoder         : Lavf60.16.100
  Stream #0:0: Video: wrapped_avframe, rgb24(pc, gbr/unknown/unknown, progressive), 1280x720, q=2-31, 200 kb/s, 90k fps, 90k tbn (attached pic)
    Metadata:
      title           : "Album cover"
      comment         : Cover (front)
      encoder         : Lavc60.31.102 wrapped_avframe
  Stream #0:1: Audio: pcm_s16le, 44100 Hz, stereo, s16, 1411 kb/s
    Metadata:
      encoder         : Lavc60.31.102 pcm_s16le
frame=    0 fps=0.0 q=-0.0 size=       0kB time=00:00:00.00 bitrate=N/A speed=   0x    [silencedetect @ 0x62205149c2c0] silence_start: 0
[silencedetect @ 0x62205149c2c0] silence_end: 0.624127 | silence_duration: 0.624127
frame=    1 fps=0.0 q=-0.0 size=N/A time=00:01:51.54 bitrate=N/A speed= 215x    [silencedetect @ 0x62205149c2c0] silence_start: 170.058
[silencedetect @ 0x62205149c2c0] silence_end: 170.699 | silence_duration: 0.640771
frame=    1 fps=1.0 q=-0.0 size=N/A time=00:04:31.09 bitrate=N/A speed= 266x    [silencedetect @ 0x62205149c2c0] silence_start: 383.17
[silencedetect @ 0x62205149c2c0] silence_end: 385.341 | silence_duration: 2.17159
frame=    1 fps=0.6 q=-0.0 size=N/A time=00:08:00.96 bitrate=N/A speed= 312x    [silencedetect @ 0x62205149c2c0] silence_start: 613.172
[silencedetect @ 0x62205149c2c0] silence_end: 615.858 | silence_duration: 2.68692
frame=    1 fps=0.5 q=-0.0 size=N/A time=00:11:40.78 bitrate=N/A speed= 343x    [silencedetect @ 0x62205149c2c0] silence_start: 838.522
[silencedetect @ 0x62205149c2c0] silence_end: 845.738 | silence_duration: 7.21608
frame=    1 fps=0.4 q=-0.0 size=N/A time=00:16:16.66 bitrate=N/A speed= 384x    [silencedetect @ 0x62205149c2c0] silence_start: 1032.1
[silencedetect @ 0x62205149c2c0] silence_end: 1034.14 | silence_duration: 2.04297
[silencedetect @ 0x62205149c2c0] silence_start: 1217.72
[silencedetect @ 0x62205149c2c0] silence_end: 1221.54 | silence_duration: 3.82066
frame=    1 fps=0.3 q=-0.0 size=N/A time=00:21:05.73 bitrate=N/A speed= 416x    [silencedetect @ 0x62205149c2c0] silence_start: 1437.88
[silencedetect @ 0x62205149c2c0] silence_end: 1440.09 | silence_duration: 2.21222
frame=    1 fps=0.3 q=-0.0 size=N/A time=00:26:05.96 bitrate=N/A speed= 442x    [silencedetect @ 0x62205149c2c0] silence_start: 1666.73
[silencedetect @ 0x62205149c2c0] silence_end: 1668.38 | silence_duration: 1.64934
frame=    1 fps=0.2 q=-0.0 size=N/A time=00:31:17.05 bitrate=N/A speed= 465x    [silencedetect @ 0x62205149c2c0] silence_start: 1890.2
[silencedetect @ 0x62205149c2c0] silence_end: 1892.7 | silence_duration: 2.4956
[silencedetect @ 0x62205149c2c0] silence_start: 2098.78
[silencedetect @ 0x62205149c2c0] silence_end: 2103.86 | silence_duration: 5.07653
frame=    1 fps=0.2 q=-0.0 size=N/A time=00:36:24.43 bitrate=N/A speed= 481x    [silencedetect @ 0x62205149c2c0] silence_start: 2323.38
[silencedetect @ 0x62205149c2c0] silence_end: 2327.34 | silence_duration: 3.95921
frame=    1 fps=0.2 q=-0.0 size=N/A time=00:41:20.74 bitrate=N/A speed= 492x    [silencedetect @ 0x62205149c2c0] silence_start: 2581.29
[silencedetect @ 0x62205149c2c0] silence_end: 2584.42 | silence_duration: 3.12794
frame=    1 fps=0.2 q=-0.0 size=N/A time=00:46:22.90 bitrate=N/A speed= 502x    [silencedetect @ 0x62205149c2c0] silence_start: 2815.21
[silencedetect @ 0x62205149c2c0] silence_end: 2818.42 | silence_duration: 3.20594
[silencedetect @ 0x62205149c2c0] silence_start: 3055.82
[silencedetect @ 0x62205149c2c0] silence_end: 3058.45 | silence_duration: 2.63789
frame=    1 fps=0.2 q=-0.0 size=N/A time=00:51:26.65 bitrate=N/A speed= 511x    [silencedetect @ 0x62205149c2c0] silence_start: 3323.33
[silencedetect @ 0x62205149c2c0] silence_end: 3323.91 | silence_duration: 0.581995
[silencedetect @ 0x62205149c2c0] silence_start: 3324.51
[silencedetect @ 0x62205149c2c0] silence_end: 3325.54 | silence_duration: 1.02898
frame=    1 fps=0.2 q=-0.0 size=N/A time=00:56:29.31 bitrate=N/A speed= 518x    [silencedetect @ 0x62205149c2c0] silence_start: 3574.03
[silencedetect @ 0x62205149c2c0] silence_end: 3582.18 | silence_duration: 8.14662
frame=    1 fps=0.1 q=-0.0 size=N/A time=01:00:48.91 bitrate=N/A speed= 517x    frame=    1 fps=0.1 q=-0.0 size=N/A time=01:02:07.41 bitrate=N/A speed= 493x    [silencedetect @ 0x62205149c2c0] silence_start: 3788.34
[silencedetect @ 0x62205149c2c0] silence_end: 3794.34 | silence_duration: 6.00002
[silencedetect @ 0x62205149c2c0] silence_start: 3794.35
[silencedetect @ 0x62205149c2c0] silence_end: 3794.89 | silence_duration: 0.543447
frame=    1 fps=0.1 q=-0.0 size=N/A time=01:03:41.03 bitrate=N/A speed= 474x    frame=    1 fps=0.1 q=-0.0 size=N/A time=01:05:39.94 bitrate=N/A speed= 460x    [silencedetect @ 0x62205149c2c0] silence_start: 4037.68
[silencedetect @ 0x62205149c2c0] silence_end: 4040.82 | silence_duration: 3.13456
frame=    1 fps=0.1 q=-0.0 size=N/A time=01:07:50.19 bitrate=N/A speed= 449x    [silencedetect @ 0x62205149c2c0] silence_start: 4329.43
[silencedetect @ 0x62205149c2c0] silence_end: 4358.37 | silence_duration: 28.9427
frame=    1 fps=0.1 q=-0.0 size=N/A time=01:12:50.91 bitrate=N/A speed= 457x    [silencedetect @ 0x62205149c2c0] silence_start: 4593.95
[silencedetect @ 0x62205149c2c0] silence_end: 4598.45 | silence_duration: 4.49635
frame=    1 fps=0.1 q=-0.0 size=N/A time=01:17:52.81 bitrate=N/A speed= 465x    [silencedetect @ 0x62205149c2c0] silence_start: 4850.76
[silencedetect @ 0x62205149c2c0] silence_end: 4855.21 | silence_duration: 4.4517
frame=    1 fps=0.1 q=-0.0 size=N/A time=01:22:54.34 bitrate=N/A speed= 471x    [silencedetect @ 0x62205149c2c0] silence_start: 5101.11
[silencedetect @ 0x62205149c2c0] silence_end: 5102.1 | silence_duration: 0.989955
frame=    1 fps=0.1 q=-0.0 size=N/A time=01:27:57.67 bitrate=N/A speed= 477x    [silencedetect @ 0x62205149c2c0] silence_start: 5359.42
[silencedetect @ 0x62205149c2c0] silence_end: 5365.13 | silence_duration: 5.71009
frame=    1 fps=0.1 q=-0.0 size=N/A time=01:32:55.31 bitrate=N/A speed= 482x    [silencedetect @ 0x62205149c2c0] silence_start: 5617.49
[silencedetect @ 0x62205149c2c0] silence_end: 5621.95 | silence_duration: 4.46197
[silencedetect @ 0x62205149c2c0] silence_start: 5850.9
[silencedetect @ 0x62205149c2c0] silence_end: 5854.26 | silence_duration: 3.36118
frame=    1 fps=0.1 q=-0.0 size=N/A time=01:38:00.37 bitrate=N/A speed= 488x    [silencedetect @ 0x62205149c2c0] silence_start: 6104.45
[silencedetect @ 0x62205149c2c0] silence_end: 6106.86 | silence_duration: 2.40889
frame=    1 fps=0.1 q=-0.0 size=N/A time=01:43:10.91 bitrate=N/A speed= 493x    [silencedetect @ 0x62205149c2c0] silence_start: 6313.71
[silencedetect @ 0x62205149c2c0] silence_end: 6319.86 | silence_duration: 6.149
frame=    1 fps=0.1 q=-0.0 size=N/A time=01:48:21.04 bitrate=N/A speed= 498x    [silencedetect @ 0x62205149c2c0] silence_start: 6557.88
[silencedetect @ 0x62205149c2c0] silence_end: 6559.94 | silence_duration: 2.06109
frame=    1 fps=0.1 q=-0.0 size=N/A time=01:52:58.07 bitrate=N/A speed= 500x    [silencedetect @ 0x62205149c2c0] silence_start: 6797.03
[out#0/null @ 0x62205147d580] video:0kB audio:1171444kB subtitle:0kB other streams:0kB global headers:0kB muxing overhead: unknown
frame=    1 fps=0.1 q=-0.0 Lsize=N/A time=01:53:20.19 bitrate=N/A speed= 500x    
[silencedetect @ 0x62205149c2c0] silence_end: 6800.22 | silence_duration: 3.19132
